<mxfile host="app.diagrams.net" modified="2023-08-14T06:34:10.105Z" agent="Mozilla/5.0 (Windows NT 10.0; Win64; x64) AppleWebKit/537.36 (KHTML, like Gecko) Chrome/115.0.0.0 Safari/537.36" version="21.6.8" etag="3j6pSGvSP_5ZLEBjgRBg" type="github">
  <diagram name="第 1 页" id="lMqjCfx-RD8MRX9gv6bo">
    <mxGraphModel>
      <root>
        <mxCell id="0" />
        <mxCell id="1" parent="0" />
      </root>
    </mxGraphModel>
  </diagram>
</mxfile>
